 <svg version="1.0" xmlns="http://www.w3.org/2000/svg" width="700.000000pt" height="655.000000pt" viewBox="0 0 700.000000 655.000000" preserveAspectRatio="xMidYMid meet">
<metadata>
Created by potrace 1.12, written by Peter Selinger 2001-2015
</metadata>
<g transform="translate(0.000000,655.000000) scale(0.100000,-0.100000)" fill="#000000" stroke="none">
<path d="M3986 5229 c-104 -11 -284 -46 -365 -71 -35 -11 -119 -42 -185 -70
-305 -125 -455 -165 -666 -175 -66 -3 -159 -1 -220 6 -118 14 -304 59 -375 90
-27 12 -50 19 -53 17 -8 -9 73 -121 136 -187 133 -141 280 -228 488 -289 105
-30 276 -52 379 -48 l90 3 -3 -65 c-6 -142 -99 -593 -149 -725 -68 -180 -179
-291 -325 -325 -115 -26 -296 -1 -419 59 -32 16 -61 26 -63 22 -10 -15 63
-138 116 -196 96 -104 186 -146 355 -165 312 -34 623 97 801 337 102 139 164
270 216 458 35 129 76 345 76 403 0 50 49 222 84 298 58 122 133 187 331 287
149 75 297 133 503 198 39 13 72 26 72 30 0 10 -184 56 -315 79 -232 39 -350
46 -509 29z m355 -34 c216 -28 362 -60 356 -78 -1 -5 -61 -30 -132 -56 -347
-127 -559 -246 -636 -357 -67 -98 -120 -257 -139 -419 -37 -321 -123 -586
-253 -780 -57 -85 -181 -205 -263 -253 -179 -106 -398 -145 -608 -107 -102 18
-191 62 -258 128 -52 52 -98 121 -86 132 3 3 45 -6 94 -20 165 -49 310 -43
426 16 97 50 198 176 250 312 46 119 148 628 148 734 0 75 -14 83 -141 83
-248 0 -489 71 -679 200 -57 39 -220 203 -220 222 0 12 4 11 170 -29 108 -26
128 -28 340 -28 299 0 343 10 749 175 300 121 595 163 882 125z"></path>
<path d="M2225 4397 c-83 -33 -170 -112 -222 -202 l-29 -49 -84 -17 c-164 -32
-264 -99 -321 -214 -26 -54 -32 -80 -37 -156 -3 -54 0 -119 8 -162 7 -40 14
-126 14 -192 2 -150 19 -197 113 -314 114 -143 312 -292 489 -369 191 -83 356
-116 584 -116 146 0 177 3 270 26 158 40 351 106 477 164 17 8 34 14 37 14 4
0 89 40 189 89 100 49 215 100 255 115 243 87 528 117 765 81 183 -28 589
-140 832 -230 162 -60 163 -59 45 57 -257 251 -572 414 -940 485 -145 28 -502
25 -665 -4 -223 -41 -511 -136 -662 -218 -143 -78 -324 -142 -467 -165 -101
-17 -268 -7 -366 20 -151 43 -367 177 -427 265 -77 113 -107 213 -101 333 5
114 35 179 116 253 83 76 159 109 249 109 118 0 206 -51 249 -145 31 -65 30
-109 -2 -174 -43 -86 -169 -153 -259 -138 -65 11 -35 -10 58 -41 112 -37 192
-47 273 -33 166 26 276 136 341 339 42 130 20 235 -64 314 -38 36 -118 77
-165 84 -23 4 -54 21 -81 43 -122 107 -246 161 -367 160 -41 0 -88 -6 -105
-12z m190 -22 c84 -22 147 -55 240 -125 43 -33 97 -65 119 -71 99 -27 180 -89
210 -161 32 -76 15 -191 -46 -312 -42 -83 -106 -148 -181 -182 -55 -26 -73
-29 -157 -29 -99 0 -150 9 -150 25 0 6 20 19 45 31 51 24 110 85 131 135 20
47 17 131 -5 180 -23 51 -80 107 -140 136 -38 19 -63 23 -136 23 -83 0 -95 -2
-153 -34 -189 -103 -275 -285 -228 -485 18 -76 70 -182 117 -239 78 -94 289
-217 444 -259 125 -33 317 -31 453 5 124 33 218 70 352 137 242 122 497 201
770 241 144 21 404 16 555 -10 277 -49 532 -158 760 -326 84 -62 182 -151 175
-159 -3 -3 -74 17 -158 44 -495 161 -795 216 -1042 192 -247 -25 -418 -76
-685 -207 -280 -137 -567 -242 -764 -279 -165 -31 -419 -15 -609 40 -110 32
-289 117 -389 186 -84 57 -252 218 -296 284 -52 78 -70 147 -72 284 -1 69 -7
160 -13 203 -37 252 80 412 339 461 37 7 71 16 77 20 6 3 35 41 65 84 108 154
222 205 372 167z"></path>
<path d="M1532 2339 c-49 -14 -62 -54 -62 -189 l0 -110 129 0 c71 0 136 -3
145 -6 44 -17 0 -24 -150 -24 l-165 0 3 -42 3 -43 403 -3 402 -2 0 45 0 45
-160 2 c-208 4 -220 22 -17 26 l147 3 0 115 c0 131 -12 166 -63 184 -38 13
-569 12 -615 -1z m528 -94 c11 -13 -14 -15 -214 -15 -194 0 -226 2 -226 15 0
22 421 22 440 0z m-4 -100 c17 -13 -6 -14 -208 -15 -196 0 -228 2 -228 15 0
22 406 22 436 0z"></path>
<path d="M2837 2343 c-2 -5 -10 -25 -17 -47 l-12 -38 -22 38 c-20 37 -25 39
-75 42 -52 3 -53 2 -47 -20 20 -69 19 -78 -3 -78 -18 0 -21 -6 -21 -45 l0 -45
55 0 c42 0 55 -3 55 -15 0 -11 -13 -15 -54 -15 -49 0 -54 -2 -60 -25 -11 -45
2 -72 40 -80 45 -8 34 -25 -17 -25 l-39 0 0 -44 c0 -35 4 -45 20 -49 11 -3 20
-12 20 -20 0 -19 50 -27 183 -27 111 0 117 -2 101 -44 -5 -13 -22 -16 -81 -16
-65 0 -74 2 -71 18 3 14 -7 17 -62 20 -75 4 -90 -8 -90 -69 0 -62 19 -69 198
-69 l153 0 -3 -32 c-4 -37 -27 -50 -35 -19 -5 20 -11 21 -164 21 l-159 0 0
-50 0 -50 124 0 c69 0 136 4 150 10 24 9 26 7 26 -15 0 -24 2 -25 74 -25 59 0
78 4 100 21 25 19 26 25 26 112 0 77 -3 94 -20 112 -17 18 -19 29 -14 70 5 34
12 49 26 53 22 5 23 1 -8 56 -27 48 -25 66 7 66 16 0 19 7 19 50 l0 50 -121 0
c-92 0 -120 3 -117 13 3 8 38 13 116 15 l112 3 0 43 c0 35 -4 45 -20 49 -19 5
-19 7 -6 45 8 22 13 42 11 44 -2 1 -26 1 -54 0 -44 -3 -54 -8 -66 -31 -17 -33
-45 -59 -45 -42 0 6 6 27 14 46 8 18 12 36 8 39 -8 9 -130 7 -135 -1z m112
-359 c16 -36 7 -44 -47 -44 -64 0 -76 9 -61 43 10 23 18 27 54 27 35 0 44 -4
54 -26z"></path>
<path d="M3577 2344 c-4 -4 -7 -31 -7 -61 l0 -53 -71 0 c-69 0 -71 1 -65 23 4
12 9 34 12 50 l7 27 -71 0 -70 0 -12 -37 c-7 -21 -28 -64 -47 -96 -33 -55 -34
-60 -29 -135 3 -55 8 -76 17 -74 22 5 85 60 114 98 l28 36 72 -4 c99 -5 115
-19 115 -105 l0 -63 -155 0 -155 0 0 -55 0 -55 114 0 c120 0 170 -11 186 -40
6 -10 10 -48 10 -84 l0 -66 -170 0 -170 0 0 -60 0 -60 376 0 c435 0 434 0 434
83 l0 37 -155 0 -155 0 0 95 0 95 145 0 145 0 0 55 0 55 -145 0 -145 0 0 85 0
85 150 0 150 0 0 55 0 55 -150 0 -149 0 -3 58 -3 57 -70 3 c-39 1 -74 0 -78
-4z"></path>
<path d="M4470 2311 c-27 -53 -25 -87 5 -116 23 -24 30 -25 140 -25 65 0 115
-4 115 -9 0 -12 -126 -111 -195 -154 l-53 -32 -4 -73 c-1 -41 0 -76 4 -78 12
-8 147 78 234 149 l84 67 0 -34 c0 -29 -10 -43 -70 -99 -39 -36 -111 -93 -160
-127 l-90 -61 0 -75 c0 -40 4 -74 8 -74 11 0 158 99 242 162 l65 50 3 -52 c4
-60 -7 -78 -51 -82 -31 -3 -32 -5 -35 -55 l-3 -53 95 0 c144 0 136 -22 136
371 l0 318 -24 28 c-24 28 -26 28 -156 31 -118 3 -131 5 -125 20 13 35 9 37
-67 40 l-77 3 -21 -40z"></path>
<path d="M4260 2246 c0 -59 -4 -97 -11 -102 -20 -12 -29 19 -29 99 l0 77 -45
0 -45 0 0 -129 c0 -152 8 -170 81 -180 l44 -6 3 -72 3 -72 -66 -30 -65 -30 0
-59 c0 -32 3 -61 6 -64 3 -4 29 4 59 17 29 13 56 21 59 18 3 -4 6 -46 6 -95
l0 -89 63 3 62 3 3 117 c2 105 5 119 22 128 17 9 20 21 20 76 0 61 -1 65 -20
59 -18 -6 -20 -2 -20 43 0 41 3 51 20 55 17 4 20 14 20 65 0 51 -3 60 -20 65
-18 5 -20 14 -20 101 l0 96 -65 0 -65 0 0 -94z"></path>
<path d="M2372 2323 c-7 -3 -19 -18 -27 -33 -12 -24 -15 -91 -15 -390 l0 -360
50 0 50 0 0 110 c0 109 0 110 24 110 37 0 45 -20 48 -126 l3 -99 38 1 c21 1
44 7 50 13 13 13 24 673 12 719 -12 50 -38 62 -132 61 -49 0 -94 -3 -101 -6z
m122 -129 c3 -9 6 -33 6 -55 0 -38 -1 -39 -35 -39 l-35 0 0 55 c0 54 1 55 29
55 17 0 31 -6 35 -16z m-9 -220 c11 -11 15 -30 13 -58 -3 -38 -5 -41 -35 -44
l-33 -3 0 54 c0 29 3 57 7 60 11 12 31 8 48 -9z"></path>
<path d="M1508 1885 c-31 -17 -41 -53 -36 -130 l3 -50 137 -3 c160 -3 161 -3
168 -101 l5 -66 70 0 70 0 3 82 3 82 142 3 142 3 3 50 c5 79 -5 113 -38 130
-42 22 -632 21 -672 0z m529 -71 c12 -3 24 -12 27 -20 5 -12 -31 -14 -224 -14
-223 0 -230 1 -230 20 0 19 7 20 203 20 111 0 212 -3 224 -6z"></path>
<path d="M1500 1634 c-42 -96 -42 -94 43 -94 l75 0 21 61 c11 34 18 66 15 70
-3 5 -34 9 -70 9 l-65 0 -19 -46z"></path>
<path d="M2020 1673 c0 -5 12 -36 27 -70 l27 -63 78 0 c43 0 78 2 78 4 0 2
-11 29 -25 60 -17 39 -33 60 -51 66 -30 12 -134 13 -134 3z"></path>
<path d="M1547 1423 c-4 -3 -7 -44 -7 -91 0 -79 -1 -84 -20 -79 -11 3 -25 -2
-32 -10 -24 -30 52 -59 80 -31 18 18 17 218 -1 218 -8 0 -17 -3 -20 -7z"></path>
<path d="M1630 1316 c0 -110 1 -116 20 -116 20 0 21 5 18 112 -3 98 -5 113
-20 116 -16 3 -18 -7 -18 -112z"></path>
<path d="M1840 1371 c0 -33 -4 -62 -9 -66 -5 -3 -26 22 -46 55 -39 64 -69 78
-77 38 -4 -18 -3 -136 1 -190 1 -5 10 -8 21 -8 17 0 19 8 22 68 l3 67 40 -67
c30 -53 44 -68 62 -68 24 0 24 1 21 112 -3 98 -5 113 -20 116 -16 3 -18 -5
-18 -57z"></path>
<path d="M3210 1315 c0 -106 2 -116 18 -113 15 3 17 16 17 113 0 97 -2 110
-17 113 -16 3 -18 -7 -18 -113z"></path>
<path d="M4707 1424 c-4 -4 -7 -56 -7 -116 l0 -108 50 0 c43 0 50 3 50 20 0
15 -7 20 -25 20 -24 0 -24 2 -27 92 -2 74 -6 93 -18 96 -9 1 -19 0 -23 -4z"></path>
<path d="M1940 1393 c-59 -53 -43 -157 28 -184 67 -26 152 17 152 77 0 23 -3
24 -56 24 -47 0 -55 -3 -52 -17 2 -11 16 -20 33 -23 29 -6 30 -6 8 -18 -30
-17 -57 -15 -81 6 -71 59 7 155 90 111 16 -8 24 -8 35 4 14 14 12 17 -15 31
-49 25 -106 21 -142 -11z"></path>
<path d="M2150 1401 c0 -10 9 -21 20 -24 18 -5 20 -14 20 -91 0 -79 2 -86 20
-86 18 0 20 7 20 86 0 77 2 86 20 91 11 3 20 14 20 24 0 17 -8 19 -60 19 -52
0 -60 -2 -60 -19z"></path>
<path d="M2300 1310 l0 -110 55 0 c48 0 55 3 55 19 0 15 -8 21 -32 23 -28 2
-33 7 -33 28 0 21 5 26 33 28 23 2 32 8 32 22 0 14 -9 20 -32 22 -21 2 -33 8
-33 18 0 10 12 16 33 18 24 2 32 8 32 23 0 16 -7 19 -55 19 l-55 0 0 -110z"></path>
<path d="M2450 1310 c0 -102 1 -110 20 -110 17 0 19 8 22 67 l3 67 44 -67 c28
-43 50 -67 62 -67 17 0 19 9 19 110 0 102 -1 110 -20 110 -17 0 -19 -8 -22
-67 l-3 -68 -42 68 c-30 47 -48 67 -63 67 -19 0 -20 -6 -20 -110z"></path>
<path d="M2691 1404 c-64 -45 -58 -154 11 -190 36 -19 88 -18 117 2 20 15 57
81 49 89 -2 2 -25 5 -53 6 -44 3 -50 1 -50 -16 0 -13 8 -21 23 -23 19 -3 21
-6 11 -18 -33 -40 -109 2 -109 61 0 55 54 81 115 53 20 -9 28 -9 38 1 9 10 7
16 -12 32 -29 24 -107 26 -140 3z"></path>
<path d="M3040 1310 l0 -110 43 0 c57 0 87 22 87 64 0 19 -6 39 -14 46 -12 9
-12 17 -4 35 9 19 7 30 -6 50 -14 21 -24 25 -61 25 l-45 0 0 -110z m73 64 c9
-10 -4 -34 -19 -34 -8 0 -14 6 -14 13 0 22 19 35 33 21z m15 -112 c-2 -9 -11
-18 -21 -20 -19 -4 -32 20 -23 43 8 22 48 0 44 -23z"></path>
<path d="M3313 1385 c-33 -33 -35 -39 -30 -81 8 -75 70 -118 143 -100 33 9 70
49 77 82 14 74 -36 134 -110 134 -38 0 -50 -5 -80 -35z m127 -25 c41 -41 12
-120 -44 -120 -37 0 -69 32 -69 68 0 64 69 96 113 52z"></path>
<path d="M3540 1310 l0 -110 51 0 c42 0 50 3 47 17 -2 9 -14 20 -28 23 -24 6
-25 9 -28 93 -3 79 -5 87 -22 87 -19 0 -20 -7 -20 -110z"></path>
<path d="M3700 1393 c-41 -37 -50 -94 -21 -141 68 -107 234 -35 201 87 -22 81
-118 110 -180 54z m120 -33 c41 -41 12 -120 -44 -120 -37 0 -69 32 -69 68 0
64 69 96 113 52z"></path>
<path d="M3950 1393 c-41 -37 -50 -94 -21 -141 23 -36 55 -52 107 -52 44 0 94
45 94 84 0 25 -3 26 -56 26 -47 0 -55 -3 -52 -17 2 -11 16 -20 33 -23 29 -6
30 -6 8 -18 -30 -17 -57 -15 -81 6 -33 27 -37 63 -11 96 18 23 28 27 58 24 20
-3 44 -8 53 -12 12 -6 20 -3 24 8 10 26 -25 45 -78 46 -38 0 -54 -6 -78 -27z"></path>
<path d="M4160 1310 c0 -103 1 -110 20 -110 19 0 20 7 20 110 0 103 -1 110
-20 110 -19 0 -20 -7 -20 -110z"></path>
<path d="M4288 1404 c-36 -19 -48 -43 -48 -94 0 -52 13 -76 50 -95 37 -19 83
-19 120 0 32 17 36 25 19 42 -8 8 -18 7 -37 -3 -37 -19 -55 -18 -86 7 -32 25
-35 70 -6 99 23 23 57 26 95 8 20 -9 28 -9 38 1 9 10 7 16 -12 32 -28 23 -94
25 -133 3z"></path>
<path d="M4545 1408 c-3 -7 -20 -54 -39 -105 -18 -51 -31 -95 -28 -98 13 -12
40 -3 45 15 4 16 14 20 50 20 36 0 46 -4 50 -20 5 -19 48 -30 46 -12 0 4 -17
52 -37 107 -31 82 -41 101 -60 103 -12 2 -24 -3 -27 -10z m44 -105 c1 -7 -8
-13 -19 -13 -23 0 -25 12 -8 43 11 21 11 21 19 2 4 -11 8 -26 8 -32z"></path>
</g>
</svg>